<svg width="434" height="78" viewBox="0 0 434 78" fill="none" xmlns="http://www.w3.org/2000/svg">
<path d="M90.88 27.44C95.1893 27.44 98.6453 28.6987 101.248 31.216C103.851 33.7333 105.152 37.4667 105.152 42.416V62H97.152V43.44C97.152 40.4533 96.448 38.2133 95.04 36.72C93.632 35.184 91.6267 34.416 89.024 34.416C86.08 34.416 83.7547 35.312 82.048 37.104C80.3413 38.8533 79.488 41.392 79.488 44.72V62H71.488V27.824H79.104V32.24C80.4267 30.6613 82.0907 29.4667 84.096 28.656C86.1013 27.8453 88.3627 27.44 90.88 27.44ZM138.996 27.824L124.34 62H116.084L101.428 27.824H109.748L120.372 53.168L131.316 27.824H138.996ZM167.506 45.104C167.506 45.6587 167.463 46.448 167.378 47.472H140.562C141.031 49.9893 142.247 51.9947 144.21 53.488C146.215 54.9387 148.69 55.664 151.634 55.664C155.389 55.664 158.482 54.4267 160.914 51.952L165.202 56.88C163.666 58.7147 161.725 60.1013 159.378 61.04C157.031 61.9787 154.386 62.448 151.442 62.448C147.687 62.448 144.381 61.7013 141.522 60.208C138.663 58.7147 136.445 56.6453 134.866 54C133.33 51.312 132.562 48.2827 132.562 44.912C132.562 41.584 133.309 38.5973 134.802 35.952C136.338 33.264 138.45 31.1733 141.138 29.68C143.826 28.1867 146.855 27.44 150.226 27.44C153.554 27.44 156.519 28.1867 159.122 29.68C161.767 31.1307 163.815 33.2 165.266 35.888C166.759 38.5333 167.506 41.6053 167.506 45.104ZM150.226 33.84C147.666 33.84 145.49 34.608 143.698 36.144C141.949 37.6373 140.882 39.6427 140.498 42.16H159.89C159.549 39.6853 158.503 37.68 156.754 36.144C155.005 34.608 152.829 33.84 150.226 33.84ZM178.071 62.448C175.297 62.448 172.588 62.0853 169.943 61.36C167.297 60.6347 165.185 59.7173 163.607 58.608L166.679 52.528C168.215 53.552 170.049 54.384 172.183 55.024C174.359 55.6213 176.492 55.92 178.583 55.92C183.361 55.92 185.751 54.6613 185.751 52.144C185.751 50.9493 185.132 50.1173 183.895 49.648C182.7 49.1787 180.759 48.7307 178.071 48.304C175.255 47.8773 172.951 47.3867 171.159 46.832C169.409 46.2773 167.873 45.3173 166.551 43.952C165.271 42.544 164.631 40.6027 164.631 38.128C164.631 34.8853 165.975 32.304 168.663 30.384C171.393 28.4213 175.063 27.44 179.671 27.44C182.017 27.44 184.364 27.7173 186.711 28.272C189.057 28.784 190.977 29.488 192.471 30.384L189.399 36.464C186.497 34.7573 183.233 33.904 179.607 33.904C177.26 33.904 175.468 34.2667 174.231 34.992C173.036 35.6747 172.439 36.592 172.439 37.744C172.439 39.024 173.079 39.9413 174.359 40.496C175.681 41.008 177.708 41.4987 180.439 41.968C183.169 42.3947 185.409 42.8853 187.159 43.44C188.908 43.9947 190.401 44.9333 191.639 46.256C192.919 47.5787 193.559 49.456 193.559 51.888C193.559 55.088 192.172 57.648 189.399 59.568C186.625 61.488 182.849 62.448 178.071 62.448ZM213.312 60.144C212.373 60.912 211.221 61.488 209.856 61.872C208.533 62.256 207.125 62.448 205.632 62.448C201.877 62.448 198.976 61.4667 196.928 59.504C194.88 57.5413 193.856 54.6827 193.856 50.928V34.48H188.224V28.08H193.856V20.272H201.856V28.08H211.008V34.48H201.856V50.736C201.856 52.4 202.261 53.68 203.072 54.576C203.883 55.4293 205.056 55.856 206.592 55.856C208.384 55.856 209.877 55.3867 211.072 54.448L213.312 60.144ZM212.213 27.824H220.213V62H212.213V27.824ZM216.245 22.192C214.794 22.192 213.578 21.744 212.597 20.848C211.616 19.9093 211.125 18.7573 211.125 17.392C211.125 16.0267 211.616 14.896 212.597 14C213.578 13.0613 214.794 12.592 216.245 12.592C217.696 12.592 218.912 13.04 219.893 13.936C220.874 14.7893 221.365 15.8773 221.365 17.2C221.365 18.608 220.874 19.8027 219.893 20.784C218.954 21.7227 217.738 22.192 216.245 22.192ZM242.425 27.44C246.734 27.44 250.19 28.6987 252.793 31.216C255.396 33.7333 256.697 37.4667 256.697 42.416V62H248.697V43.44C248.697 40.4533 247.993 38.2133 246.585 36.72C245.177 35.184 243.172 34.416 240.569 34.416C237.625 34.416 235.3 35.312 233.593 37.104C231.886 38.8533 231.033 41.392 231.033 44.72V62H223.033V27.824H230.649V32.24C231.972 30.6613 233.636 29.4667 235.641 28.656C237.646 27.8453 239.908 27.44 242.425 27.44ZM293.398 27.824V56.816C293.398 68.848 287.254 74.864 274.966 74.864C271.681 74.864 268.566 74.4373 265.622 73.584C262.678 72.7733 260.246 71.5787 258.326 70L261.91 63.984C263.403 65.2213 265.281 66.2027 267.542 66.928C269.846 67.696 272.171 68.08 274.518 68.08C278.273 68.08 281.025 67.2267 282.774 65.52C284.523 63.8133 285.398 61.2107 285.398 57.712V55.92C284.033 57.4133 282.369 58.544 280.406 59.312C278.443 60.08 276.289 60.464 273.942 60.464C270.699 60.464 267.755 59.7813 265.11 58.416C262.507 57.008 260.438 55.0453 258.902 52.528C257.409 50.0107 256.662 47.1307 256.662 43.888C256.662 40.6453 257.409 37.7867 258.902 35.312C260.438 32.7947 262.507 30.8533 265.11 29.488C267.755 28.1227 270.699 27.44 273.942 27.44C276.417 27.44 278.657 27.8453 280.662 28.656C282.71 29.4667 284.417 30.704 285.782 32.368V27.824H293.398ZM275.158 53.68C278.187 53.68 280.662 52.784 282.582 50.992C284.545 49.1573 285.526 46.7893 285.526 43.888C285.526 41.0293 284.545 38.704 282.582 36.912C280.662 35.12 278.187 34.224 275.158 34.224C272.086 34.224 269.569 35.12 267.606 36.912C265.686 38.704 264.726 41.0293 264.726 43.888C264.726 46.7893 265.686 49.1573 267.606 50.992C269.569 52.784 272.086 53.68 275.158 53.68ZM338.156 62L338.092 32.304L323.372 56.88H319.66L304.94 32.688V62H297.004V17.2H303.852L321.644 46.896L339.116 17.2H345.964L346.028 62H338.156ZM362.736 27.44C367.771 27.44 371.611 28.656 374.256 31.088C376.944 33.4773 378.288 37.104 378.288 41.968V62H370.736V57.84C369.755 59.3333 368.347 60.4853 366.512 61.296C364.72 62.064 362.544 62.448 359.984 62.448C357.424 62.448 355.184 62.0213 353.264 61.168C351.344 60.272 349.851 59.056 348.784 57.52C347.76 55.9413 347.248 54.1707 347.248 52.208C347.248 49.136 348.379 46.6827 350.64 44.848C352.944 42.9707 356.55 42.032 361.456 42.032H370.288V41.52C370.288 39.1307 369.563 37.296 368.112 36.016C366.704 34.736 364.592 34.096 361.776 34.096C359.856 34.096 357.958 34.3947 356.08 34.992C354.246 35.5893 352.688 36.4213 351.408 37.488L348.272 31.664C350.064 30.2987 352.219 29.2533 354.736 28.528C357.254 27.8027 359.92 27.44 362.736 27.44ZM361.648 56.624C363.654 56.624 365.424 56.176 366.96 55.28C368.539 54.3413 369.648 53.0187 370.288 51.312V47.344H362.032C357.424 47.344 355.12 48.8587 355.12 51.888C355.12 53.3387 355.696 54.4907 356.848 55.344C358 56.1973 359.6 56.624 361.648 56.624ZM401.42 60.144C400.481 60.912 399.329 61.488 397.964 61.872C396.641 62.256 395.233 62.448 393.74 62.448C389.985 62.448 387.084 61.4667 385.036 59.504C382.988 57.5413 381.964 54.6827 381.964 50.928V34.48H376.332V28.08H381.964V20.272H389.964V28.08H399.116V34.48H389.964V50.736C389.964 52.4 390.369 53.68 391.18 54.576C391.99 55.4293 393.164 55.856 394.7 55.856C396.492 55.856 397.985 55.3867 399.18 54.448L401.42 60.144ZM431.324 45.104C431.324 45.6587 431.281 46.448 431.196 47.472H404.38C404.849 49.9893 406.065 51.9947 408.028 53.488C410.033 54.9387 412.508 55.664 415.452 55.664C419.206 55.664 422.3 54.4267 424.732 51.952L429.02 56.88C427.484 58.7147 425.542 60.1013 423.196 61.04C420.849 61.9787 418.204 62.448 415.26 62.448C411.505 62.448 408.198 61.7013 405.34 60.208C402.481 58.7147 400.262 56.6453 398.684 54C397.148 51.312 396.38 48.2827 396.38 44.912C396.38 41.584 397.126 38.5973 398.62 35.952C400.156 33.264 402.268 31.1733 404.956 29.68C407.644 28.1867 410.673 27.44 414.044 27.44C417.372 27.44 420.337 28.1867 422.94 29.68C425.585 31.1307 427.633 33.2 429.084 35.888C430.577 38.5333 431.324 41.6053 431.324 45.104ZM414.044 33.84C411.484 33.84 409.308 34.608 407.516 36.144C405.766 37.6373 404.7 39.6427 404.316 42.16H423.708C423.366 39.6853 422.321 37.68 420.572 36.144C418.822 34.608 416.646 33.84 414.044 33.84Z" fill="white"/>
<rect y="6" width="64" height="66" rx="11" fill="#6663FB"/>
<rect opacity="0.5" x="14" y="35" width="15" height="25" rx="2" fill="white"/>
<rect x="37" y="18" width="15" height="42" rx="2" fill="white"/>
</svg>
