<svg width="448" height="72" viewBox="0 0 448 72" fill="none" xmlns="http://www.w3.org/2000/svg">
<path d="M77 59V14.2H85.32V59H77Z" fill="white"/>
<path d="M107.892 24.44C110.623 24.44 113.055 24.9733 115.188 26.04C117.364 27.1066 119.071 28.7493 120.308 30.968C121.545 33.144 122.164 35.96 122.164 39.416V59H114.164V40.44C114.164 37.4106 113.439 35.1493 111.988 33.656C110.58 32.1626 108.596 31.416 106.036 31.416C104.159 31.416 102.495 31.8 101.044 32.568C99.5934 33.336 98.4627 34.488 97.6521 36.024C96.8841 37.5173 96.5001 39.416 96.5001 41.72V59H88.5001V24.824H96.1161V34.04L94.7721 31.224C95.9667 29.048 97.6947 27.384 99.9561 26.232C102.26 25.0373 104.905 24.44 107.892 24.44Z" fill="white"/>
<path d="M132.087 59L117.431 24.824H125.751L138.359 54.968H134.263L147.319 24.824H154.999L140.343 59H132.087Z" fill="white"/>
<path d="M167.446 59.448C163.648 59.448 160.32 58.7013 157.462 57.208C154.646 55.672 152.448 53.5813 150.87 50.936C149.334 48.2906 148.566 45.2826 148.566 41.912C148.566 38.4986 149.312 35.4906 150.806 32.888C152.342 30.2426 154.432 28.1733 157.078 26.68C159.766 25.1866 162.816 24.44 166.23 24.44C169.558 24.44 172.523 25.1653 175.126 26.616C177.728 28.0666 179.776 30.1146 181.27 32.76C182.763 35.4053 183.51 38.52 183.51 42.104C183.51 42.4453 183.488 42.8293 183.446 43.256C183.446 43.6826 183.424 44.088 183.382 44.472H154.902V39.16H179.158L176.022 40.824C176.064 38.8613 175.659 37.1333 174.806 35.64C173.952 34.1466 172.779 32.9733 171.286 32.12C169.835 31.2666 168.15 30.84 166.23 30.84C164.267 30.84 162.539 31.2666 161.046 32.12C159.595 32.9733 158.443 34.168 157.59 35.704C156.779 37.1973 156.374 38.968 156.374 41.016V42.296C156.374 44.344 156.843 46.1573 157.782 47.736C158.72 49.3146 160.043 50.5306 161.75 51.384C163.456 52.2373 165.419 52.664 167.638 52.664C169.558 52.664 171.286 52.3653 172.822 51.768C174.358 51.1707 175.723 50.232 176.918 48.952L179.61 55.992C177.5 56.952 177.728 57.0586 175.382 58.04C173.078 58.9786 170.432 59.448 167.446 59.448Z" fill="white"/>
<path d="M194.074 59.832C191.216 59.832 188.464 59.4693 185.818 58.744C183.216 57.976 181.146 57.0586 179.61 55.992L182.682 49.912C184.218 50.8933 186.053 51.704 188.186 52.344C190.32 52.984 192.453 53.304 194.586 53.304C197.104 53.304 198.917 52.9626 200.026 52.28C201.178 51.5973 201.754 50.68 201.754 49.528C201.754 48.5893 201.37 47.8853 200.602 47.416C199.834 46.904 198.832 46.52 197.594 46.264C196.357 46.008 194.97 45.7733 193.434 45.56C191.941 45.3466 190.426 45.0693 188.89 44.728C187.397 44.344 186.032 43.8106 184.794 43.128C183.557 42.4026 182.554 41.4426 181.786 40.248C181.018 39.0533 180.634 37.4746 180.634 35.512C180.634 33.336 181.253 31.4586 182.49 29.88C183.728 28.2586 185.456 27.0213 187.674 26.168C189.936 25.272 192.602 24.824 195.674 24.824C197.978 24.824 200.304 25.08 202.65 25.592C204.997 26.104 206.938 26.8293 208.474 27.768L208 31.5C205.5 32 203.168 32.108 200 32C198.5 31.508 197.232 31.288 195.61 31.288C193.178 31.288 191.365 31.6506 190.17 32.376C189.018 33.1013 188.442 34.0186 188.442 35.128C188.442 36.152 188.826 36.92 189.594 37.432C190.362 37.944 191.365 38.3493 192.602 38.648C193.84 38.9466 195.205 39.2026 196.698 39.416C198.234 39.5866 199.749 39.864 201.242 40.248C202.736 40.632 204.101 41.1653 205.338 41.848C206.618 42.488 207.642 43.4053 208.41 44.6C209.178 45.7946 209.562 47.352 209.562 49.272C209.562 51.4053 208.922 53.2613 207.642 54.84C206.405 56.4186 204.634 57.656 202.33 58.552C200.026 59.4053 197.274 59.832 194.074 59.832Z" fill="white"/>
<path d="M220.058 59.96C216.304 59.96 213.402 59 211.354 57.08C209.306 55.1173 208.282 52.2373 208.282 48.44V17.784H216.282V48.248C216.282 49.8693 216.688 51.128 217.498 52.024C218.352 52.92 219.525 53.368 221.018 53.368C222.81 53.368 226.544 53.3466 227.738 52.408L228.019 57.976C227.08 58.744 225.648 59 224.282 59.384C222.917 59.768 221.509 59.96 220.058 59.96ZM202.65 32.0182V25.592L225.434 25.592V31.992L202.65 32.0182Z" fill="white"/>
<path d="M229.537 59L229.217 24.824H237.217V59H229.537ZM233.249 19.192C231.755 19.192 230.518 18.7226 229.537 17.784C228.598 16.8453 228.129 15.7146 228.129 14.392C228.129 13.0266 228.598 11.896 229.537 11C230.518 10.0613 231.755 9.59198 233.249 9.59198C234.742 9.59198 235.958 10.04 236.897 10.936C237.878 11.7893 238.369 12.8773 238.369 14.2C238.369 15.608 237.899 16.8026 236.961 17.784C236.022 18.7226 234.785 19.192 233.249 19.192Z" fill="white"/>
<path d="M258.429 24.44C261.159 24.44 263.591 24.9733 265.725 26.04C267.901 27.1066 269.607 28.7493 270.845 30.968C272.082 33.144 272.701 35.96 272.701 39.416V59H264.701V40.44C264.701 37.4106 263.975 35.1493 262.525 33.656C261.117 32.1626 259.133 31.416 256.573 31.416C254.695 31.416 253.031 31.8 251.581 32.568C250.13 33.336 248.999 34.488 248.189 36.024C247.421 37.5173 247.037 39.416 247.037 41.72V59H239.037V24.824H246.653V34.04L245.309 31.224C246.503 29.048 248.231 27.384 250.493 26.232C252.797 25.0373 255.442 24.44 258.429 24.44Z" fill="white"/>
<path d="M290.72 71.864C287.562 71.864 284.469 71.4373 281.44 70.584C278.453 69.7733 276 68.5786 274.08 67L277.664 60.984C279.157 62.2213 281.034 63.2026 283.296 63.928C285.6 64.696 287.925 65.08 290.272 65.08C294.026 65.08 296.778 64.2053 298.528 62.456C300.277 60.7493 301.152 58.168 301.152 54.712V48.632L301.792 40.888L301.536 33.144V24.824H309.152V53.816C309.152 60.0026 307.573 64.5466 304.416 67.448C301.258 70.392 296.693 71.864 290.72 71.864ZM289.696 57.464C286.453 57.464 283.509 56.7813 280.864 55.416C278.261 54.008 276.192 52.0666 274.656 49.592C273.162 47.1173 272.416 44.216 272.416 40.888C272.416 37.6026 273.162 34.7226 274.656 32.248C276.192 29.7733 278.261 27.8533 280.864 26.488C283.509 25.1226 286.453 24.44 289.696 24.44C292.597 24.44 295.2 25.016 297.504 26.168C299.808 27.32 301.642 29.112 303.008 31.544C304.416 33.976 305.12 37.0906 305.12 40.888C305.12 44.6853 304.416 47.8213 303.008 50.296C301.642 52.728 299.808 54.5413 297.504 55.736C295.2 56.888 292.597 57.464 289.696 57.464ZM290.912 50.68C292.917 50.68 294.709 50.2746 296.288 49.464C297.866 48.6106 299.082 47.4586 299.936 46.008C300.832 44.5146 301.28 42.808 301.28 40.888C301.28 38.968 300.832 37.2826 299.936 35.832C299.082 34.3386 297.866 33.208 296.288 32.44C294.709 31.6293 292.917 31.224 290.912 31.224C288.906 31.224 287.093 31.6293 285.472 32.44C283.893 33.208 282.656 34.3386 281.76 35.832C280.906 37.2826 280.48 38.968 280.48 40.888C280.48 42.808 280.906 44.5146 281.76 46.008C282.656 47.4586 283.893 48.6106 285.472 49.464C287.093 50.2746 288.906 50.68 290.912 50.68Z" fill="white"/>
<path d="M314.757 59V14.2H321.605L341.189 46.904H337.605L356.869 14.2H363.717L363.781 59H355.909L355.845 26.552H357.509L341.125 53.88H337.413L320.773 26.552H322.693V59H314.757Z" fill="white"/>
<path d="M386.49 59V52.088L386.042 50.616V38.52C386.042 36.1733 385.338 34.36 383.93 33.08C382.522 31.7573 380.389 31.096 377.53 31.096C375.61 31.096 373.712 31.3946 371.834 31.992C370 32.5893 368.442 33.4213 367.162 34.488L364.026 28.664C365.861 27.256 368.037 26.2106 370.554 25.528C373.114 24.8026 375.76 24.44 378.49 24.44C383.44 24.44 387.258 25.6346 389.946 28.024C392.677 30.3706 394.042 34.0186 394.042 38.968V59H386.49ZM375.738 59.448C373.178 59.448 370.938 59.0213 369.018 58.168C367.098 57.272 365.605 56.056 364.538 54.52C363.514 52.9413 363.002 51.1706 363.002 49.208C363.002 47.288 363.45 45.56 364.346 44.024C365.285 42.488 366.8 41.272 368.89 40.376C370.981 39.48 373.754 39.032 377.21 39.032H387.13V44.344H377.786C375.056 44.344 373.221 44.792 372.282 45.688C371.344 46.5413 370.874 47.608 370.874 48.888C370.874 50.3386 371.45 51.4906 372.602 52.344C373.754 53.1973 375.354 53.624 377.402 53.624C379.365 53.624 381.114 53.176 382.65 52.28C384.229 51.384 385.36 50.0613 386.042 48.312L387.386 53.112C386.618 55.1173 385.232 56.6746 383.226 57.784C381.264 58.8933 378.768 59.448 375.738 59.448Z" fill="white"/>
<path d="M409.493 59.448C405.739 59.448 402.837 58.488 400.789 56.568C398.741 54.6053 397.717 51.7253 397.717 47.928V17.272H405.717V47.736C405.717 49.3573 406.123 50.616 406.933 51.512C407.787 52.408 408.96 52.856 410.453 52.856C412.245 52.856 413.739 52.3866 414.933 51.448L419 55.9279C418.061 56.6959 415.083 58.488 413.717 58.872C412.352 59.256 410.944 59.448 409.493 59.448ZM392.085 31.48L380.5 24.51L414.869 25.08V31.48H392.085Z" fill="white"/>
<path d="M431.013 59.448C427.216 59.448 423.888 58.7013 421.029 57.208C418.213 55.672 416.016 53.5813 414.437 50.936C412.901 48.2906 412.133 45.2826 412.133 41.912C412.133 38.4986 412.88 35.4906 414.373 32.888C415.909 30.2426 418 28.1733 420.645 26.68C423.333 25.1866 426.384 24.44 429.797 24.44C433.125 24.44 436.091 25.1653 438.693 26.616C441.296 28.0666 443.344 30.1146 444.837 32.76C446.331 35.4053 447.077 38.52 447.077 42.104C447.077 42.4453 447.056 42.8293 447.013 43.256C447.013 43.6826 446.992 44.088 446.949 44.472H418.469V39.16H442.725L439.589 40.824C439.632 38.8613 439.227 37.1333 438.373 35.64C437.52 34.1466 436.347 32.9733 434.853 32.12C433.403 31.2666 431.717 30.84 429.797 30.84C427.835 30.84 426.107 31.2666 424.613 32.12C423.163 32.9733 422.011 34.168 421.157 35.704C420.347 37.1973 419.941 38.968 419.941 41.016V42.296C419.941 44.344 420.411 46.1573 421.349 47.736C422.288 49.3146 423.611 50.5306 425.317 51.384C427.024 52.2373 428.987 52.664 431.205 52.664C433.125 52.664 434.853 52.3653 436.389 51.768C437.925 51.1707 439.291 50.232 440.485 48.952L444.773 53.88C443.237 55.672 441.296 57.0586 438.949 58.04C436.645 58.9786 434 59.448 431.013 59.448Z" fill="white"/>
<rect width="66" height="66" rx="11" fill="#6663FB"/>
<rect opacity="0.5" x="14" y="29" width="15" height="25" rx="2" fill="white"/>
<rect x="37" y="12" width="15" height="42" rx="2" fill="white"/>
</svg>
